Hubballi-Regular-20px-LatinOnly-Decomp-105_-15sbs.ufo
<glyph name="seven" format="1">
  <advance width="459"/>
  <unicode hex="0037"/>
  <outline>
    <contour>
      <point x="435" y="509" type="curve" smooth="yes"/>
      <point x="395" y="435"/>
      <point x="286" y="289"/>
      <point x="255" y="235" type="curve" smooth="yes"/>
      <point x="229" y="187"/>
      <point x="207" y="128"/>
      <point x="207" y="69" type="curve" smooth="yes"/>
      <point x="207" y="11" type="line" smooth="yes"/>
      <point x="207" y="0"/>
      <point x="198" y="-9"/>
      <point x="187" y="-9" type="curve" smooth="yes"/>
      <point x="176" y="-9"/>
      <point x="167" y="0"/>
      <point x="167" y="11" type="curve" smooth="yes"/>
      <point x="167" y="69" type="line" smooth="yes"/>
      <point x="167" y="134"/>
      <point x="191" y="201"/>
      <point x="221" y="255" type="curve" smooth="yes"/>
      <point x="252" y="309"/>
      <point x="359" y="455"/>
      <point x="399" y="529" type="curve" smooth="yes"/>
      <point x="405" y="538"/>
      <point x="417" y="542"/>
      <point x="427" y="537" type="curve" smooth="yes"/>
      <point x="436" y="531"/>
      <point x="440" y="519"/>
    </contour>
    <contour>
      <point x="409" y="500" type="curve" smooth="yes"/>
      <point x="49" y="500" type="line" smooth="yes"/>
      <point x="38" y="500"/>
      <point x="29" y="509"/>
      <point x="29" y="520" type="curve" smooth="yes"/>
      <point x="29" y="531"/>
      <point x="38" y="540"/>
      <point x="49" y="540" type="curve" smooth="yes"/>
      <point x="409" y="540" type="line" smooth="yes"/>
      <point x="420" y="540"/>
      <point x="429" y="531"/>
      <point x="429" y="520" type="curve" smooth="yes"/>
      <point x="429" y="509"/>
      <point x="420" y="500"/>
    </contour>
  </outline>
</glyph>
<glyph name="colon" format="1">
  <advance width="234"/>
  <unicode hex="003A"/>
  <outline>
    <contour>
      <point x="116" y="91" type="curve" smooth="yes"/>
      <point x="141" y="91"/>
      <point x="158" y="69"/>
      <point x="158" y="40" type="curve" smooth="yes"/>
      <point x="158" y="5"/>
      <point x="142" y="-10"/>
      <point x="117" y="-10" type="curve" smooth="yes"/>
      <point x="97" y="-10"/>
      <point x="75" y="6"/>
      <point x="75" y="40" type="curve" smooth="yes"/>
      <point x="75" y="69"/>
      <point x="91" y="91"/>
    </contour>
    <contour>
      <point x="116" y="374" type="curve" smooth="yes"/>
      <point x="141" y="374"/>
      <point x="158" y="351"/>
      <point x="158" y="324" type="curve" smooth="yes"/>
      <point x="158" y="289"/>
      <point x="142" y="273"/>
      <point x="117" y="273" type="curve" smooth="yes"/>
      <point x="97" y="273"/>
      <point x="75" y="290"/>
      <point x="75" y="324" type="curve" smooth="yes"/>
      <point x="75" y="351"/>
      <point x="91" y="374"/>
    </contour>
  </outline>
</glyph>
<glyph name="F" format="1">
  <advance width="469"/>
  <unicode hex="0046"/>
  <outline>
    <contour>
      <point x="134" y="520" type="curve" smooth="yes"/>
      <point x="134" y="11" type="line" smooth="yes"/>
      <point x="134" y="0"/>
      <point x="125" y="-9"/>
      <point x="114" y="-9" type="curve" smooth="yes"/>
      <point x="103" y="-9"/>
      <point x="94" y="0"/>
      <point x="94" y="11" type="curve" smooth="yes"/>
      <point x="94" y="520" type="line" smooth="yes"/>
      <point x="94" y="531"/>
      <point x="103" y="540"/>
      <point x="114" y="540" type="curve" smooth="yes"/>
      <point x="125" y="540"/>
      <point x="134" y="531"/>
    </contour>
    <contour>
      <point x="123" y="540" type="curve" smooth="yes"/>
      <point x="413" y="540" type="line" smooth="yes"/>
      <point x="424" y="540"/>
      <point x="433" y="531"/>
      <point x="433" y="520" type="curve" smooth="yes"/>
      <point x="433" y="509"/>
      <point x="424" y="500"/>
      <point x="413" y="500" type="curve" smooth="yes"/>
      <point x="123" y="500" type="line" smooth="yes"/>
      <point x="112" y="500"/>
      <point x="103" y="509"/>
      <point x="103" y="520" type="curve" smooth="yes"/>
      <point x="103" y="531"/>
      <point x="112" y="540"/>
    </contour>
    <contour>
      <point x="123" y="285" type="curve" smooth="yes"/>
      <point x="360" y="285" type="line" smooth="yes"/>
      <point x="371" y="285"/>
      <point x="380" y="276"/>
      <point x="380" y="265" type="curve" smooth="yes"/>
      <point x="380" y="254"/>
      <point x="371" y="245"/>
      <point x="360" y="245" type="curve" smooth="yes"/>
      <point x="123" y="245" type="line" smooth="yes"/>
      <point x="112" y="245"/>
      <point x="103" y="254"/>
      <point x="103" y="265" type="curve" smooth="yes"/>
      <point x="103" y="276"/>
      <point x="112" y="285"/>
    </contour>
  </outline>
</glyph>
<glyph name="R" format="1">
  <advance width="538"/>
  <unicode hex="0052"/>
  <outline>
    <contour>
      <point x="131" y="240" type="curve" smooth="yes"/>
      <point x="269" y="240" type="line" smooth="yes"/>
      <point x="370" y="240"/>
      <point x="423" y="297"/>
      <point x="423" y="370" type="curve" smooth="yes"/>
      <point x="423" y="448"/>
      <point x="360" y="500"/>
      <point x="269" y="500" type="curve" smooth="yes"/>
      <point x="114" y="500" type="line"/>
      <point x="134" y="520" type="line"/>
      <point x="134" y="11" type="line" smooth="yes"/>
      <point x="134" y="0"/>
      <point x="125" y="-9"/>
      <point x="114" y="-9" type="curve" smooth="yes"/>
      <point x="103" y="-9"/>
      <point x="94" y="0"/>
      <point x="94" y="11" type="curve" smooth="yes"/>
      <point x="94" y="520" type="line" smooth="yes"/>
      <point x="94" y="531"/>
      <point x="103" y="540"/>
      <point x="114" y="540" type="curve" smooth="yes"/>
      <point x="269" y="540" type="line" smooth="yes"/>
      <point x="388" y="540"/>
      <point x="463" y="468"/>
      <point x="463" y="370" type="curve" smooth="yes"/>
      <point x="463" y="279"/>
      <point x="400" y="200"/>
      <point x="269" y="200" type="curve" smooth="yes"/>
      <point x="131" y="200" type="line" smooth="yes"/>
      <point x="120" y="200"/>
      <point x="111" y="209"/>
      <point x="111" y="220" type="curve" smooth="yes"/>
      <point x="111" y="231"/>
      <point x="120" y="240"/>
    </contour>
    <contour>
      <point x="314" y="227" type="curve" smooth="yes"/>
      <point x="487" y="24" type="line" smooth="yes"/>
      <point x="494" y="16"/>
      <point x="493" y="3"/>
      <point x="485" y="-4" type="curve" smooth="yes"/>
      <point x="477" y="-11"/>
      <point x="464" y="-10"/>
      <point x="457" y="-2" type="curve" smooth="yes"/>
      <point x="284" y="201" type="line" smooth="yes"/>
      <point x="277" y="209"/>
      <point x="278" y="222"/>
      <point x="286" y="229" type="curve" smooth="yes"/>
      <point x="294" y="236"/>
      <point x="307" y="235"/>
    </contour>
  </outline>
</glyph>
<glyph name="f" format="1">
  <advance width="304"/>
  <unicode hex="0066"/>
  <outline>
    <contour>
      <point x="270" y="553" type="curve" smooth="yes"/>
      <point x="177" y="548"/>
      <point x="146" y="509"/>
      <point x="146" y="445" type="curve" smooth="yes"/>
      <point x="146" y="10" type="line" smooth="yes"/>
      <point x="146" y="-1"/>
      <point x="137" y="-10"/>
      <point x="126" y="-10" type="curve" smooth="yes"/>
      <point x="115" y="-10"/>
      <point x="106" y="-1"/>
      <point x="106" y="10" type="curve" smooth="yes"/>
      <point x="106" y="445" type="line" smooth="yes"/>
      <point x="106" y="529"/>
      <point x="141" y="586"/>
      <point x="268" y="593" type="curve" smooth="yes"/>
      <point x="279" y="594"/>
      <point x="288" y="585"/>
      <point x="289" y="574" type="curve" smooth="yes"/>
      <point x="290" y="563"/>
      <point x="281" y="554"/>
    </contour>
    <contour>
      <point x="33" y="389" type="curve" smooth="yes"/>
      <point x="271" y="389" type="line" smooth="yes"/>
      <point x="282" y="389"/>
      <point x="291" y="380"/>
      <point x="291" y="369" type="curve" smooth="yes"/>
      <point x="291" y="358"/>
      <point x="282" y="349"/>
      <point x="271" y="349" type="curve" smooth="yes"/>
      <point x="33" y="349" type="line" smooth="yes"/>
      <point x="22" y="349"/>
      <point x="13" y="358"/>
      <point x="13" y="369" type="curve" smooth="yes"/>
      <point x="13" y="380"/>
      <point x="22" y="389"/>
    </contour>
  </outline>
</glyph>
<glyph name="n" format="1">
  <advance width="492"/>
  <unicode hex="006E"/>
  <outline>
    <contour>
      <point x="81" y="14" type="curve" smooth="yes"/>
      <point x="81" y="374" type="line" smooth="yes"/>
      <point x="81" y="385"/>
      <point x="90" y="394"/>
      <point x="101" y="394" type="curve" smooth="yes"/>
      <point x="112" y="394"/>
      <point x="121" y="385"/>
      <point x="121" y="374" type="curve" smooth="yes"/>
      <point x="121" y="14" type="line" smooth="yes"/>
      <point x="121" y="3"/>
      <point x="112" y="-6"/>
      <point x="101" y="-6" type="curve" smooth="yes"/>
      <point x="90" y="-6"/>
      <point x="81" y="3"/>
    </contour>
    <contour>
      <point x="382" y="14" type="curve" smooth="yes"/>
      <point x="382" y="224" type="line" smooth="yes"/>
      <point x="382" y="316"/>
      <point x="342" y="354"/>
      <point x="284" y="354" type="curve" smooth="yes"/>
      <point x="223" y="354"/>
      <point x="165" y="315"/>
      <point x="119" y="268" type="curve" smooth="yes"/>
      <point x="112" y="260"/>
      <point x="99" y="260"/>
      <point x="91" y="268" type="curve" smooth="yes"/>
      <point x="83" y="275"/>
      <point x="83" y="288"/>
      <point x="91" y="296" type="curve" smooth="yes"/>
      <point x="145" y="351"/>
      <point x="213" y="394"/>
      <point x="284" y="394" type="curve" smooth="yes"/>
      <point x="360" y="394"/>
      <point x="422" y="354"/>
      <point x="422" y="224" type="curve" smooth="yes"/>
      <point x="422" y="14" type="line" smooth="yes"/>
      <point x="422" y="3"/>
      <point x="413" y="-6"/>
      <point x="402" y="-6" type="curve" smooth="yes"/>
      <point x="391" y="-6"/>
      <point x="382" y="3"/>
    </contour>
  </outline>
</glyph>
<glyph name="Otilde" format="1">
  <advance width="642"/>
  <unicode hex="00D5"/>
  <outline>
    <contour>
      <point x="323" y="545" type="curve" smooth="yes"/>
      <point x="469" y="545"/>
      <point x="587" y="429"/>
      <point x="587" y="260" type="curve" smooth="yes"/>
      <point x="587" y="100"/>
      <point x="489" y="-23"/>
      <point x="323" y="-23" type="curve" smooth="yes"/>
      <point x="166" y="-23"/>
      <point x="55" y="100"/>
      <point x="55" y="257" type="curve" smooth="yes"/>
      <point x="55" y="429"/>
      <point x="164" y="545"/>
    </contour>
    <contour>
      <point x="323" y="505" type="curve" smooth="yes"/>
      <point x="186" y="505"/>
      <point x="95" y="403"/>
      <point x="95" y="257" type="curve" smooth="yes"/>
      <point x="95" y="124"/>
      <point x="188" y="17"/>
      <point x="323" y="17" type="curve" smooth="yes"/>
      <point x="465" y="17"/>
      <point x="547" y="124"/>
      <point x="547" y="260" type="curve" smooth="yes"/>
      <point x="547" y="403"/>
      <point x="449" y="505"/>
    </contour>
    <contour>
      <point x="174" y="685" type="curve" smooth="yes"/>
      <point x="204" y="722"/>
      <point x="232" y="742"/>
      <point x="261" y="742" type="curve" smooth="yes"/>
      <point x="287" y="742"/>
      <point x="310" y="729"/>
      <point x="335" y="710" type="curve" smooth="yes"/>
      <point x="352" y="697"/>
      <point x="367" y="687"/>
      <point x="384" y="687" type="curve" smooth="yes"/>
      <point x="408" y="687"/>
      <point x="425" y="705"/>
      <point x="447" y="733" type="curve" smooth="yes"/>
      <point x="454" y="742"/>
      <point x="467" y="743"/>
      <point x="475" y="737" type="curve" smooth="yes"/>
      <point x="484" y="730"/>
      <point x="485" y="717"/>
      <point x="479" y="709" type="curve" smooth="yes"/>
      <point x="445" y="667"/>
      <point x="418" y="647"/>
      <point x="384" y="647" type="curve" smooth="yes"/>
      <point x="359" y="647"/>
      <point x="336" y="659"/>
      <point x="311" y="678" type="curve" smooth="yes"/>
      <point x="294" y="691"/>
      <point x="279" y="702"/>
      <point x="261" y="702" type="curve" smooth="yes"/>
      <point x="242" y="702"/>
      <point x="224" y="684"/>
      <point x="206" y="661" type="curve" smooth="yes"/>
      <point x="199" y="652"/>
      <point x="186" y="651"/>
      <point x="178" y="657" type="curve" smooth="yes"/>
      <point x="169" y="664"/>
      <point x="168" y="677"/>
    </contour>
  </outline>
</glyph>
<glyph name="multiply" format="1">
  <advance width="527"/>
  <unicode hex="00D7"/>
  <outline>
    <contour>
      <point x="87" y="129" type="curve" smooth="yes"/>
      <point x="387" y="418" type="line" smooth="yes"/>
      <point x="395" y="426"/>
      <point x="408" y="426"/>
      <point x="415" y="418" type="curve" smooth="yes"/>
      <point x="423" y="410"/>
      <point x="423" y="397"/>
      <point x="415" y="390" type="curve" smooth="yes"/>
      <point x="115" y="101" type="line" smooth="yes"/>
      <point x="107" y="93"/>
      <point x="94" y="93"/>
      <point x="87" y="101" type="curve" smooth="yes"/>
      <point x="79" y="109"/>
      <point x="79" y="122"/>
    </contour>
    <contour>
      <point x="391" y="101" type="curve" smooth="yes"/>
      <point x="91" y="389" type="line" smooth="yes"/>
      <point x="83" y="396"/>
      <point x="83" y="409"/>
      <point x="91" y="417" type="curve" smooth="yes"/>
      <point x="98" y="425"/>
      <point x="111" y="425"/>
      <point x="119" y="417" type="curve" smooth="yes"/>
      <point x="419" y="129" type="line" smooth="yes"/>
      <point x="427" y="122"/>
      <point x="427" y="109"/>
      <point x="419" y="101" type="curve" smooth="yes"/>
      <point x="412" y="93"/>
      <point x="399" y="93"/>
    </contour>
  </outline>
</glyph>
<glyph name="ecircumflex" format="1">
  <advance width="473"/>
  <unicode hex="00EA"/>
  <outline>
    <contour>
      <point x="86" y="207" type="curve" smooth="yes"/>
      <point x="306" y="207" type="line" smooth="yes"/>
      <point x="350" y="207"/>
      <point x="372" y="221"/>
      <point x="372" y="252" type="curve" smooth="yes"/>
      <point x="372" y="296"/>
      <point x="321" y="348"/>
      <point x="249" y="348" type="curve" smooth="yes"/>
      <point x="162" y="348"/>
      <point x="93" y="281"/>
      <point x="93" y="183" type="curve" smooth="yes"/>
      <point x="93" y="81"/>
      <point x="167" y="29"/>
      <point x="270" y="29" type="curve" smooth="yes"/>
      <point x="305" y="29"/>
      <point x="339" y="36"/>
      <point x="364" y="47" type="curve" smooth="yes"/>
      <point x="374" y="51"/>
      <point x="386" y="46"/>
      <point x="391" y="36" type="curve" smooth="yes"/>
      <point x="395" y="26"/>
      <point x="390" y="14"/>
      <point x="380" y="9" type="curve" smooth="yes"/>
      <point x="351" y="-2"/>
      <point x="311" y="-11"/>
      <point x="270" y="-11" type="curve" smooth="yes"/>
      <point x="141" y="-11"/>
      <point x="53" y="59"/>
      <point x="53" y="183" type="curve"/>
      <point x="53" y="306"/>
      <point x="140" y="388"/>
      <point x="249" y="388" type="curve" smooth="yes"/>
      <point x="351" y="388"/>
      <point x="412" y="310"/>
      <point x="412" y="252" type="curve" smooth="yes"/>
      <point x="412" y="203"/>
      <point x="388" y="167"/>
      <point x="306" y="167" type="curve" smooth="yes"/>
      <point x="86" y="167" type="line" smooth="yes"/>
      <point x="75" y="167"/>
      <point x="66" y="176"/>
      <point x="66" y="187" type="curve" smooth="yes"/>
      <point x="66" y="198"/>
      <point x="75" y="207"/>
    </contour>
    <contour>
      <point x="254" y="593" type="curve" smooth="yes"/>
      <point x="222" y="562"/>
      <point x="189" y="529"/>
      <point x="161" y="502" type="curve" smooth="yes"/>
      <point x="153" y="494"/>
      <point x="140" y="494"/>
      <point x="133" y="502" type="curve" smooth="yes"/>
      <point x="125" y="510"/>
      <point x="125" y="523"/>
      <point x="133" y="530" type="curve" smooth="yes"/>
      <point x="161" y="557"/>
      <point x="194" y="590"/>
      <point x="226" y="621" type="curve" smooth="yes"/>
      <point x="234" y="629"/>
      <point x="247" y="629"/>
      <point x="254" y="621" type="curve" smooth="yes"/>
      <point x="262" y="613"/>
      <point x="262" y="600"/>
    </contour>
    <contour>
      <point x="324" y="502" type="curve" smooth="yes"/>
      <point x="297" y="529"/>
      <point x="265" y="562"/>
      <point x="232" y="592" type="curve" smooth="yes"/>
      <point x="224" y="600"/>
      <point x="224" y="613"/>
      <point x="231" y="621" type="curve" smooth="yes"/>
      <point x="239" y="629"/>
      <point x="252" y="629"/>
      <point x="260" y="622" type="curve" smooth="yes"/>
      <point x="293" y="590"/>
      <point x="325" y="557"/>
      <point x="352" y="530" type="curve" smooth="yes"/>
      <point x="360" y="523"/>
      <point x="360" y="509"/>
      <point x="352" y="502" type="curve" smooth="yes"/>
      <point x="345" y="494"/>
      <point x="331" y="494"/>
    </contour>
  </outline>
</glyph>
<glyph name="iacute" format="1">
  <advance width="214"/>
  <unicode hex="00ED"/>
  <outline>
    <contour>
      <point x="87" y="9" type="curve" smooth="yes"/>
      <point x="87" y="368" type="line" smooth="yes"/>
      <point x="87" y="379"/>
      <point x="96" y="388"/>
      <point x="107" y="388" type="curve" smooth="yes"/>
      <point x="118" y="388"/>
      <point x="127" y="379"/>
      <point x="127" y="368" type="curve" smooth="yes"/>
      <point x="127" y="9" type="line" smooth="yes"/>
      <point x="127" y="-2"/>
      <point x="118" y="-11"/>
      <point x="107" y="-11" type="curve" smooth="yes"/>
      <point x="96" y="-11"/>
      <point x="87" y="-2"/>
    </contour>
    <contour>
      <point x="206" y="597" type="curve" smooth="yes"/>
      <point x="176" y="566"/>
      <point x="148" y="532"/>
      <point x="121" y="500" type="curve" smooth="yes"/>
      <point x="114" y="492"/>
      <point x="101" y="491"/>
      <point x="93" y="498" type="curve" smooth="yes"/>
      <point x="85" y="505"/>
      <point x="84" y="518"/>
      <point x="91" y="526" type="curve" smooth="yes"/>
      <point x="118" y="558"/>
      <point x="146" y="592"/>
      <point x="176" y="625" type="curve" smooth="yes"/>
      <point x="184" y="633"/>
      <point x="197" y="633"/>
      <point x="205" y="626" type="curve" smooth="yes"/>
      <point x="213" y="618"/>
      <point x="213" y="605"/>
    </contour>
  </outline>
</glyph>
<glyph name="oslash" format="1">
  <advance width="515"/>
  <unicode hex="00F8"/>
  <outline>
    <contour>
      <point x="258" y="398" type="curve" smooth="yes"/>
      <point x="382" y="398"/>
      <point x="460" y="304"/>
      <point x="460" y="189" type="curve" smooth="yes"/>
      <point x="460" y="77"/>
      <point x="381" y="-10"/>
      <point x="258" y="-10" type="curve" smooth="yes"/>
      <point x="134" y="-10"/>
      <point x="55" y="78"/>
      <point x="55" y="191" type="curve"/>
      <point x="55" y="304"/>
      <point x="132" y="398"/>
    </contour>
    <contour>
      <point x="63" y="28" type="curve" smooth="yes"/>
      <point x="421" y="388" type="line" smooth="yes"/>
      <point x="428" y="396"/>
      <point x="441" y="396"/>
      <point x="449" y="388" type="curve" smooth="yes"/>
      <point x="457" y="381"/>
      <point x="457" y="368"/>
      <point x="449" y="360" type="curve" smooth="yes"/>
      <point x="91" y="0" type="line" smooth="yes"/>
      <point x="84" y="-8"/>
      <point x="71" y="-8"/>
      <point x="63" y="0" type="curve" smooth="yes"/>
      <point x="55" y="7"/>
      <point x="55" y="20"/>
    </contour>
    <contour>
      <point x="258" y="358" type="curve" smooth="yes"/>
      <point x="156" y="358"/>
      <point x="95" y="282"/>
      <point x="95" y="191" type="curve" smooth="yes"/>
      <point x="95" y="100"/>
      <point x="158" y="30"/>
      <point x="258" y="30" type="curve" smooth="yes"/>
      <point x="357" y="30"/>
      <point x="420" y="99"/>
      <point x="420" y="189" type="curve" smooth="yes"/>
      <point x="420" y="282"/>
      <point x="358" y="358"/>
    </contour>
  </outline>
</glyph>
<glyph name="emacron" format="1">
  <advance width="473"/>
  <unicode hex="0113"/>
  <outline>
    <contour>
      <point x="86" y="209" type="curve" smooth="yes"/>
      <point x="306" y="209" type="line" smooth="yes"/>
      <point x="350" y="209"/>
      <point x="372" y="223"/>
      <point x="372" y="254" type="curve" smooth="yes"/>
      <point x="372" y="297"/>
      <point x="321" y="349"/>
      <point x="249" y="349" type="curve" smooth="yes"/>
      <point x="162" y="349"/>
      <point x="93" y="282"/>
      <point x="93" y="184" type="curve" smooth="yes"/>
      <point x="93" y="82"/>
      <point x="167" y="30"/>
      <point x="270" y="30" type="curve" smooth="yes"/>
      <point x="305" y="30"/>
      <point x="340" y="38"/>
      <point x="365" y="48" type="curve" smooth="yes"/>
      <point x="375" y="52"/>
      <point x="387" y="46"/>
      <point x="391" y="36" type="curve" smooth="yes"/>
      <point x="395" y="26"/>
      <point x="389" y="14"/>
      <point x="379" y="10" type="curve" smooth="yes"/>
      <point x="350" y="0"/>
      <point x="311" y="-10"/>
      <point x="270" y="-10" type="curve" smooth="yes"/>
      <point x="141" y="-10"/>
      <point x="53" y="60"/>
      <point x="53" y="184" type="curve"/>
      <point x="53" y="308"/>
      <point x="140" y="389"/>
      <point x="249" y="389" type="curve" smooth="yes"/>
      <point x="351" y="389"/>
      <point x="412" y="311"/>
      <point x="412" y="254" type="curve" smooth="yes"/>
      <point x="412" y="205"/>
      <point x="388" y="169"/>
      <point x="306" y="169" type="curve" smooth="yes"/>
      <point x="86" y="169" type="line" smooth="yes"/>
      <point x="75" y="169"/>
      <point x="66" y="178"/>
      <point x="66" y="189" type="curve" smooth="yes"/>
      <point x="66" y="200"/>
      <point x="75" y="209"/>
    </contour>
    <contour>
      <point x="340" y="530" type="curve" smooth="yes"/>
      <point x="129" y="530" type="line" smooth="yes"/>
      <point x="118" y="530"/>
      <point x="109" y="539"/>
      <point x="109" y="550" type="curve" smooth="yes"/>
      <point x="109" y="561"/>
      <point x="118" y="570"/>
      <point x="129" y="570" type="curve" smooth="yes"/>
      <point x="340" y="570" type="line" smooth="yes"/>
      <point x="351" y="570"/>
      <point x="360" y="561"/>
      <point x="360" y="550" type="curve" smooth="yes"/>
      <point x="360" y="539"/>
      <point x="351" y="530"/>
    </contour>
  </outline>
</glyph>
<glyph name="tcaron" format="1">
  <advance width="342"/>
  <unicode hex="0165"/>
  <outline>
    <contour>
      <point x="320" y="640" type="curve" smooth="yes"/>
      <point x="297" y="507" type="line" smooth="yes"/>
      <point x="295" y="496"/>
      <point x="284" y="488"/>
      <point x="274" y="490" type="curve" smooth="yes"/>
      <point x="263" y="492"/>
      <point x="255" y="503"/>
      <point x="257" y="513" type="curve" smooth="yes"/>
      <point x="280" y="646" type="line" smooth="yes"/>
      <point x="282" y="657"/>
      <point x="293" y="665"/>
      <point x="303" y="663" type="curve" smooth="yes"/>
      <point x="314" y="661"/>
      <point x="322" y="650"/>
    </contour>
    <contour>
      <point x="146" y="499" type="curve" smooth="yes"/>
      <point x="146" y="131" type="line" smooth="yes"/>
      <point x="146" y="63"/>
      <point x="190" y="30"/>
      <point x="278" y="28" type="curve" smooth="yes"/>
      <point x="289" y="28"/>
      <point x="298" y="18"/>
      <point x="298" y="8" type="curve" smooth="yes"/>
      <point x="298" y="-3"/>
      <point x="288" y="-12"/>
      <point x="278" y="-12" type="curve" smooth="yes"/>
      <point x="154" y="-10"/>
      <point x="106" y="43"/>
      <point x="106" y="131" type="curve" smooth="yes"/>
      <point x="106" y="499" type="line" smooth="yes"/>
      <point x="106" y="510"/>
      <point x="115" y="519"/>
      <point x="126" y="519" type="curve" smooth="yes"/>
      <point x="137" y="519"/>
      <point x="146" y="510"/>
    </contour>
    <contour>
      <point x="33" y="387" type="curve" smooth="yes"/>
      <point x="292" y="387" type="line" smooth="yes"/>
      <point x="303" y="387"/>
      <point x="312" y="378"/>
      <point x="312" y="367" type="curve" smooth="yes"/>
      <point x="312" y="356"/>
      <point x="303" y="347"/>
      <point x="292" y="347" type="curve" smooth="yes"/>
      <point x="33" y="347" type="line" smooth="yes"/>
      <point x="22" y="347"/>
      <point x="13" y="356"/>
      <point x="13" y="367" type="curve" smooth="yes"/>
      <point x="13" y="378"/>
      <point x="22" y="387"/>
    </contour>
  </outline>
</glyph>
<glyph name="zcaron" format="1">
  <advance width="436"/>
  <unicode hex="017E"/>
  <outline>
    <contour>
      <point x="358" y="348" type="curve" smooth="yes"/>
      <point x="75" y="348" type="line" smooth="yes"/>
      <point x="64" y="348"/>
      <point x="55" y="357"/>
      <point x="55" y="368" type="curve" smooth="yes"/>
      <point x="55" y="379"/>
      <point x="64" y="388"/>
      <point x="75" y="388" type="curve" smooth="yes"/>
      <point x="358" y="388" type="line" smooth="yes"/>
      <point x="369" y="388"/>
      <point x="378" y="379"/>
      <point x="378" y="368" type="curve" smooth="yes"/>
      <point x="378" y="357"/>
      <point x="369" y="348"/>
    </contour>
    <contour>
      <point x="60" y="29" type="curve" smooth="yes"/>
      <point x="376" y="29" type="line" smooth="yes"/>
      <point x="387" y="29"/>
      <point x="396" y="20"/>
      <point x="396" y="9" type="curve" smooth="yes"/>
      <point x="396" y="-2"/>
      <point x="387" y="-11"/>
      <point x="376" y="-11" type="curve" smooth="yes"/>
      <point x="60" y="-11" type="line" smooth="yes"/>
      <point x="49" y="-11"/>
      <point x="40" y="-2"/>
      <point x="40" y="9" type="curve" smooth="yes"/>
      <point x="40" y="20"/>
      <point x="49" y="29"/>
    </contour>
    <contour>
      <point x="379" y="355" type="curve" smooth="yes"/>
      <point x="81" y="4" type="line" smooth="yes"/>
      <point x="74" y="-4"/>
      <point x="61" y="-5"/>
      <point x="53" y="2" type="curve" smooth="yes"/>
      <point x="45" y="9"/>
      <point x="44" y="22"/>
      <point x="51" y="30" type="curve" smooth="yes"/>
      <point x="349" y="381" type="line" smooth="yes"/>
      <point x="356" y="389"/>
      <point x="369" y="390"/>
      <point x="377" y="383" type="curve" smooth="yes"/>
      <point x="385" y="376"/>
      <point x="386" y="363"/>
    </contour>
    <contour>
      <point x="127" y="616" type="curve" smooth="yes"/>
      <point x="154" y="589"/>
      <point x="192" y="550"/>
      <point x="217" y="525" type="curve" smooth="yes"/>
      <point x="225" y="518"/>
      <point x="225" y="504"/>
      <point x="217" y="497" type="curve" smooth="yes"/>
      <point x="210" y="489"/>
      <point x="196" y="489"/>
      <point x="189" y="497" type="curve" smooth="yes"/>
      <point x="164" y="522"/>
      <point x="126" y="561"/>
      <point x="99" y="588" type="curve" smooth="yes"/>
      <point x="91" y="595"/>
      <point x="91" y="609"/>
      <point x="99" y="616" type="curve" smooth="yes"/>
      <point x="106" y="624"/>
      <point x="120" y="624"/>
    </contour>
    <contour>
      <point x="196" y="525" type="curve" smooth="yes"/>
      <point x="220" y="549"/>
      <point x="259" y="589"/>
      <point x="286" y="616" type="curve" smooth="yes"/>
      <point x="293" y="624"/>
      <point x="307" y="624"/>
      <point x="314" y="616" type="curve" smooth="yes"/>
      <point x="322" y="609"/>
      <point x="322" y="595"/>
      <point x="314" y="588" type="curve" smooth="yes"/>
      <point x="287" y="561"/>
      <point x="248" y="521"/>
      <point x="224" y="497" type="curve" smooth="yes"/>
      <point x="217" y="489"/>
      <point x="203" y="489"/>
      <point x="196" y="497" type="curve" smooth="yes"/>
      <point x="188" y="504"/>
      <point x="188" y="518"/>
    </contour>
  </outline>
</glyph>
<glyph name="daggerdbl" format="1">
  <advance width="487"/>
  <unicode hex="2021"/>
  <outline>
    <contour>
      <point x="263" y="520" type="curve" smooth="yes"/>
      <point x="263" y="11" type="line" smooth="yes"/>
      <point x="263" y="0"/>
      <point x="254" y="-9"/>
      <point x="243" y="-9" type="curve" smooth="yes"/>
      <point x="232" y="-9"/>
      <point x="223" y="0"/>
      <point x="223" y="11" type="curve" smooth="yes"/>
      <point x="223" y="520" type="line" smooth="yes"/>
      <point x="223" y="531"/>
      <point x="232" y="540"/>
      <point x="243" y="540" type="curve" smooth="yes"/>
      <point x="254" y="540"/>
      <point x="263" y="531"/>
    </contour>
    <contour>
      <point x="85" y="406" type="curve" smooth="yes"/>
      <point x="402" y="406" type="line" smooth="yes"/>
      <point x="413" y="406"/>
      <point x="422" y="397"/>
      <point x="422" y="386" type="curve" smooth="yes"/>
      <point x="422" y="375"/>
      <point x="413" y="366"/>
      <point x="402" y="366" type="curve" smooth="yes"/>
      <point x="85" y="366" type="line" smooth="yes"/>
      <point x="74" y="366"/>
      <point x="65" y="375"/>
      <point x="65" y="386" type="curve" smooth="yes"/>
      <point x="65" y="397"/>
      <point x="74" y="406"/>
    </contour>
    <contour>
      <point x="85" y="198" type="curve" smooth="yes"/>
      <point x="402" y="198" type="line" smooth="yes"/>
      <point x="413" y="198"/>
      <point x="422" y="189"/>
      <point x="422" y="178" type="curve" smooth="yes"/>
      <point x="422" y="167"/>
      <point x="413" y="158"/>
      <point x="402" y="158" type="curve" smooth="yes"/>
      <point x="85" y="158" type="line" smooth="yes"/>
      <point x="74" y="158"/>
      <point x="65" y="167"/>
      <point x="65" y="178" type="curve" smooth="yes"/>
      <point x="65" y="189"/>
      <point x="74" y="198"/>
    </contour>
  </outline>
</glyph>
<glyph name="bSignAa" format="1">
  <advance width="220"/>
  <outline>
    <contour>
      <point x="111" y="-12"/>
      <point x="120" y="-1"/>
      <point x="120" y="13" type="curve" smooth="yes"/>
      <point x="120" y="470" type="line" smooth="yes"/>
      <point x="120" y="544"/>
      <point x="127" y="554"/>
      <point x="161" y="554" type="curve" smooth="yes"/>
      <point x="220" y="554" type="line" smooth="yes"/>
      <point x="231" y="554"/>
      <point x="240" y="561"/>
      <point x="240" y="571" type="curve" smooth="yes"/>
      <point x="240" y="580"/>
      <point x="231" y="587"/>
      <point x="220" y="587" type="curve" smooth="yes"/>
      <point x="149" y="587" type="line" smooth="yes"/>
      <point x="117" y="587"/>
      <point x="82" y="569"/>
      <point x="82" y="498" type="curve"/>
      <point x="102" y="515" type="line"/>
      <point x="102" y="572"/>
      <point x="69" y="587"/>
      <point x="25" y="587" type="curve" smooth="yes"/>
      <point x="0" y="587" type="line" smooth="yes"/>
      <point x="-11" y="587"/>
      <point x="-20" y="580"/>
      <point x="-20" y="571" type="curve" smooth="yes"/>
      <point x="-20" y="561"/>
      <point x="-11" y="554"/>
      <point x="0" y="554" type="curve" smooth="yes"/>
      <point x="25" y="554" type="line" smooth="yes"/>
      <point x="75" y="554"/>
      <point x="80" y="530"/>
      <point x="80" y="477" type="curve" smooth="yes"/>
      <point x="80" y="13" type="line" smooth="yes"/>
      <point x="80" y="-1"/>
      <point x="89" y="-12"/>
      <point x="100" y="-12" type="curve" smooth="yes"/>
    </contour>
  </outline>
</glyph>
<glyph name="dieresiscmb.cap" format="1">
  <advance width="0"/>
  <outline>
    <contour>
      <point x="-108" y="727" type="curve" smooth="yes"/>
      <point x="-91" y="727"/>
      <point x="-71" y="710"/>
      <point x="-71" y="680" type="curve" smooth="yes"/>
      <point x="-71" y="647"/>
      <point x="-91" y="633"/>
      <point x="-108" y="633" type="curve" smooth="yes"/>
      <point x="-129" y="633"/>
      <point x="-147" y="649"/>
      <point x="-147" y="680" type="curve" smooth="yes"/>
      <point x="-147" y="709"/>
      <point x="-129" y="727"/>
    </contour>
    <contour>
      <point x="95" y="727" type="curve" smooth="yes"/>
      <point x="112" y="727"/>
      <point x="131" y="712"/>
      <point x="131" y="680" type="curve" smooth="yes"/>
      <point x="131" y="646"/>
      <point x="112" y="633"/>
      <point x="95" y="633" type="curve" smooth="yes"/>
      <point x="74" y="633"/>
      <point x="57" y="648"/>
      <point x="57" y="680" type="curve" smooth="yes"/>
      <point x="57" y="710"/>
      <point x="74" y="727"/>
    </contour>
  </outline>
</glyph>
<glyph name="gravecmb" format="1">
  <advance width="0"/>
  <outline>
    <contour>
      <point x="-65" y="610" type="curve" smooth="yes"/>
      <point x="-37" y="574"/>
      <point x="-19" y="552"/>
      <point x="9" y="510" type="curve" smooth="yes"/>
      <point x="15" y="501"/>
      <point x="12" y="488"/>
      <point x="3" y="482" type="curve" smooth="yes"/>
      <point x="-6" y="476"/>
      <point x="-19" y="479"/>
      <point x="-25" y="488" type="curve" smooth="yes"/>
      <point x="-51" y="528"/>
      <point x="-69" y="550"/>
      <point x="-97" y="586" type="curve" smooth="yes"/>
      <point x="-103" y="594"/>
      <point x="-102" y="607"/>
      <point x="-93" y="614" type="curve" smooth="yes"/>
      <point x="-85" y="620"/>
      <point x="-72" y="619"/>
    </contour>
  </outline>
</glyph>
<glyph name="tildecmb.cap" format="1">
  <advance width="0"/>
  <outline>
    <contour>
      <point x="-154" y="680" type="curve" smooth="yes"/>
      <point x="-124" y="716"/>
      <point x="-95" y="736"/>
      <point x="-67" y="736" type="curve" smooth="yes"/>
      <point x="-41" y="736"/>
      <point x="-18" y="723"/>
      <point x="7" y="704" type="curve" smooth="yes"/>
      <point x="24" y="691"/>
      <point x="39" y="681"/>
      <point x="56" y="681" type="curve" smooth="yes"/>
      <point x="80" y="681"/>
      <point x="97" y="699"/>
      <point x="118" y="727" type="curve" smooth="yes"/>
      <point x="125" y="736"/>
      <point x="138" y="737"/>
      <point x="146" y="731" type="curve" smooth="yes"/>
      <point x="155" y="724"/>
      <point x="156" y="711"/>
      <point x="150" y="703" type="curve" smooth="yes"/>
      <point x="117" y="661"/>
      <point x="90" y="641"/>
      <point x="56" y="641" type="curve" smooth="yes"/>
      <point x="31" y="641"/>
      <point x="8" y="653"/>
      <point x="-17" y="672" type="curve" smooth="yes"/>
      <point x="-34" y="685"/>
      <point x="-49" y="696"/>
      <point x="-67" y="696" type="curve" smooth="yes"/>
      <point x="-87" y="696"/>
      <point x="-104" y="678"/>
      <point x="-124" y="654" type="curve" smooth="yes"/>
      <point x="-131" y="646"/>
      <point x="-144" y="645"/>
      <point x="-152" y="652" type="curve" smooth="yes"/>
      <point x="-160" y="659"/>
      <point x="-161" y="672"/>
    </contour>
  </outline>
</glyph>
<glyph name="uni0122" format="1">
  <advance width="619"/>
  <outline>
    <contour>
      <point x="483" y="488" type="curve" smooth="yes"/>
      <point x="441" y="505"/>
      <point x="393" y="516"/>
      <point x="337" y="516" type="curve" smooth="yes"/>
      <point x="197" y="516"/>
      <point x="95" y="417"/>
      <point x="95" y="268" type="curve" smooth="yes"/>
      <point x="95" y="134"/>
      <point x="183" y="28"/>
      <point x="334" y="28" type="curve" smooth="yes"/>
      <point x="410" y="28"/>
      <point x="465" y="48"/>
      <point x="512" y="76" type="curve" smooth="yes"/>
      <point x="521" y="82"/>
      <point x="533" y="79"/>
      <point x="539" y="69" type="curve" smooth="yes"/>
      <point x="545" y="60"/>
      <point x="542" y="48"/>
      <point x="532" y="42" type="curve" smooth="yes"/>
      <point x="481" y="10"/>
      <point x="418" y="-12"/>
      <point x="334" y="-12" type="curve" smooth="yes"/>
      <point x="157" y="-12"/>
      <point x="55" y="112"/>
      <point x="55" y="268" type="curve" smooth="yes"/>
      <point x="55" y="441"/>
      <point x="175" y="556"/>
      <point x="337" y="556" type="curve" smooth="yes"/>
      <point x="399" y="556"/>
      <point x="451" y="543"/>
      <point x="497" y="526" type="curve" smooth="yes"/>
      <point x="507" y="522"/>
      <point x="513" y="510"/>
      <point x="509" y="500" type="curve" smooth="yes"/>
      <point x="505" y="490"/>
      <point x="493" y="484"/>
    </contour>
    <contour>
      <point x="503" y="70" type="curve" smooth="yes"/>
      <point x="503" y="252" type="line" smooth="yes"/>
      <point x="503" y="263"/>
      <point x="512" y="272"/>
      <point x="523" y="272" type="curve" smooth="yes"/>
      <point x="534" y="272"/>
      <point x="543" y="263"/>
      <point x="543" y="252" type="curve" smooth="yes"/>
      <point x="543" y="70" type="line" smooth="yes"/>
      <point x="543" y="59"/>
      <point x="534" y="50"/>
      <point x="523" y="50" type="curve" smooth="yes"/>
      <point x="512" y="50"/>
      <point x="503" y="59"/>
    </contour>
    <contour>
      <point x="511" y="232" type="curve" smooth="yes"/>
      <point x="350" y="232" type="line" smooth="yes"/>
      <point x="339" y="232"/>
      <point x="330" y="241"/>
      <point x="330" y="252" type="curve" smooth="yes"/>
      <point x="330" y="263"/>
      <point x="339" y="272"/>
      <point x="350" y="272" type="curve" smooth="yes"/>
      <point x="511" y="272" type="line" smooth="yes"/>
      <point x="522" y="272"/>
      <point x="531" y="263"/>
      <point x="531" y="252" type="curve" smooth="yes"/>
      <point x="531" y="241"/>
      <point x="522" y="232"/>
    </contour>
    <contour>
      <point x="353" y="-107" type="curve" smooth="yes"/>
      <point x="360" y="-122"/>
      <point x="364" y="-138"/>
      <point x="364" y="-155" type="curve" smooth="yes"/>
      <point x="364" y="-201"/>
      <point x="331" y="-245"/>
      <point x="271" y="-272" type="curve" smooth="yes"/>
      <point x="262" y="-277"/>
      <point x="249" y="-272"/>
      <point x="245" y="-262" type="curve" smooth="yes"/>
      <point x="240" y="-253"/>
      <point x="245" y="-240"/>
      <point x="255" y="-236" type="curve" smooth="yes"/>
      <point x="295" y="-217"/>
      <point x="324" y="-189"/>
      <point x="324" y="-155" type="curve" smooth="yes"/>
      <point x="324" y="-144"/>
      <point x="322" y="-134"/>
      <point x="317" y="-125" type="curve" smooth="yes"/>
      <point x="312" y="-115"/>
      <point x="316" y="-103"/>
      <point x="326" y="-98" type="curve" smooth="yes"/>
      <point x="336" y="-93"/>
      <point x="348" y="-97"/>
    </contour>
  </outline>
</glyph>
